<svg width="14" height="28" viewBox="0 0 14 28" fill="none" xmlns="http://www.w3.org/2000/svg">
<path d="M11.8935 3.33332H9.66683V1.99999C9.66683 1.26666 9.06683 0.666656 8.3335 0.666656H5.66683C4.9335 0.666656 4.3335 1.26666 4.3335 1.99999V3.33332H2.10683C1.1335 3.33332 0.333496 4.13332 0.333496 5.10666V25.5467C0.333496 26.5333 1.1335 27.3333 2.12016 27.3333H11.8802C12.8668 27.3333 13.6668 26.5333 13.6668 25.56V5.10666C13.6668 4.13332 12.8668 3.33332 11.8935 3.33332ZM10.4802 15.6533L6.92016 22.32C6.60016 22.92 5.66683 22.6933 5.66683 22V17.3333H4.10683C3.99095 17.3336 3.87698 17.3037 3.77618 17.2466C3.67537 17.1894 3.59121 17.107 3.53198 17.0074C3.47276 16.9078 3.44052 16.7944 3.43845 16.6786C3.43637 16.5627 3.46454 16.4483 3.52016 16.3467L7.08016 9.67999C7.40016 9.07999 8.3335 9.30666 8.3335 9.99999V14.6667H9.8935C10.3868 14.6667 10.7202 15.2 10.4802 15.6533Z" fill="white"/>
</svg>
