<?xml version="1.0" standalone="no"?>
<!DOCTYPE svg PUBLIC "-//W3C//DTD SVG 20010904//EN"
 "http://www.w3.org/TR/2001/REC-SVG-20010904/DTD/svg10.dtd">
<svg version="1.0" xmlns="http://www.w3.org/2000/svg"
 width="512.000000pt" height="512.000000pt" viewBox="0 0 512.000000 512.000000"
 preserveAspectRatio="xMidYMid meet">

<g transform="translate(0.000000,512.000000) scale(0.100000,-0.100000)"
fill="#000000" stroke="none">
<path d="M2330 5110 c-199 -18 -464 -78 -649 -146 -237 -88 -529 -254 -727
-414 -101 -82 -302 -283 -384 -384 -160 -198 -326 -490 -414 -727 -124 -336
-178 -742 -146 -1097 19 -216 76 -470 146 -661 88 -237 254 -529 414 -727 82
-101 283 -302 384 -384 198 -160 490 -326 727 -414 336 -124 742 -178 1097
-146 216 19 470 76 661 146 237 88 529 254 727 414 101 82 302 283 384 384
160 198 326 490 414 727 70 191 127 445 146 661 32 355 -22 761 -146 1097 -88
237 -254 529 -414 727 -82 101 -283 302 -384 384 -198 160 -490 326 -727 414
-337 124 -747 178 -1109 146z m868 -2677 l-1153 -1153 -640 640 -640 640 180
180 180 180 462 -462 463 -463 972 972 973 973 177 -177 178 -178 -1152 -1152z"/>
</g>
</svg>
